<?xml version="1.0" encoding="UTF-8" standalone="no"?>
<!-- Created with Inkscape (http://www.inkscape.org/) -->

<svg
   version="1.1"
   id="svg1"
   width="1024"
   height="1024"
   viewBox="0 0 1024 1024"
   xmlns="http://www.w3.org/2000/svg"
   xmlns:svg="http://www.w3.org/2000/svg">
  <defs
     id="defs1" />
  <g
     id="g1">
    <g
       id="g267">
      <path
         style="fill:#ed3237;fill-opacity:1;stroke:none;stroke-opacity:1"
         d="m 602.62853,439.1481 c -8.7015,-18.35534 -15.5207,-28.27452 -24.2395,-35.2583 -13.4766,-10.79489 -27.0823,-0.41776 -47.1824,35.98615 l -6.2115,11.25 h -4.3909 c -2.415,0 -4.3909,-0.34088 -4.3909,-0.75751 0,-0.41663 4.4073,-9.52913 9.794,-20.25 19.6792,-39.16639 30.2078,-52.22326 42.1109,-52.22326 13.297,0 23.3626,13.27799 41.8682,55.23077 8.3559,18.94296 8.1592,17.72329 2.9267,18.14656 l -4.3694,0.35344 z"
         id="path167" />
      <g
         id="g266"
         transform="translate(0,8)">
        <g
           id="g265">
          <g
             id="g264">
            <g
               id="g263">
              <g
                 id="g262">
                <g
                   id="g261">
                  <path
                     style="fill:#ed3237;fill-opacity:1;stroke:none;stroke-opacity:1"
                     d="m 417.71132,637.71876 c -8.11816,-3.5961 -17.53458,-18.2388 -31.43257,-48.87819 -4.43709,-9.78195 -8.06743,-18.21945 -8.06743,-18.75 0,-0.53054 2.1375,-0.95956 4.75,-0.95338 l 4.75,0.0112 5.98945,12.73875 c 23.43309,49.839 39.39036,48.33665 69.08816,-6.50455 l 3.9224,-7.24331 4.75,-0.007 c 2.6125,-0.004 4.75,0.22474 4.75,0.50759 0,0.96357 -13.2346,26.95829 -17.8122,34.98572 -17.25936,30.26697 -28.34856,39.55872 -40.68781,34.09281 z"
                     id="path148" />
                </g>
              </g>
            </g>
          </g>
        </g>
      </g>
    </g>
    <path
       id="path1"
       style="fill:#33588B;fill-opacity:1;stroke:none;stroke-opacity:1"
       d="m 463.71133,1005.6067 c -36.44718,-3.444 -63.39409,-8.72427 -99.50001,-19.49707 C 262.61065,955.79553 174.26405,893.73583 110.16149,807.65053 54.878818,733.40983 23.388638,650.20786 14.018518,553.62595 c -1.90643,-19.65045 -1.58917,-71.17389 0.56651,-92 8.2818,-80.01079 35.34356,-158.34392 76.29744,-220.85104 30.111322,-45.95831 73.841592,-92.82277 117.830872,-126.2759 27.1437,-20.642338 67.57718,-43.576988 101.99798,-57.855228 65.68881,-27.24865 123.74604,-38.87197 194.00001,-38.83969 83.1667,0.0382 158.6433,18.25608 231,55.75675 47.8683,24.80894 83.4443,51.291448 122.5,91.188248 39.7028,40.55779 66.5218,78.33892 90.0638,126.87686 29.9228,61.69354 45.4208,123.15045 49.1129,194.75586 1.7668,34.26626 -0.54,74.21523 -6.2505,108.24414 -5.9327,35.35371 -18.1215,78.08249 -30.6653,107.49998 -46.2188,108.3915 -125.8913,195.4059 -228.2609,249.2952 -53.8756,28.3612 -117.7069,47.2137 -182,53.75357 -17.5722,1.7874 -69.4159,2.0464 -86.5,0.432 z m 80.1048,-13.49557 c 58.7622,-4.6242 121.5408,-22.0219 173.7364,-48.147 72.5869,-36.3313 138.8819,-94.918 184.6081,-163.1428 37.6572,-56.1858 65.9298,-126.91975 75.4223,-188.69609 4.8902,-31.82516 6.0665,-47.3703 6.091,-80.49929 0.024,-32.69529 -0.9768,-47.73054 -5.0004,-75.10525 -11.2454,-76.50959 -43.1137,-152.8046 -89.3435,-213.89475 -26.8425,-35.47092 -62.9502,-71.74354 -95.6187,-96.05532 -48.3602,-35.989538 -108.4114,-64.331808 -167,-78.818808 -38.8522,-9.60684 -68.5306,-13.4502 -110.5,-14.30978 -85.07415,-1.74242 -153.2248,13.13979 -227.50001,49.67968 -32.59631,16.03585 -55.78132,30.551138 -81,50.711168 -74.87792,59.85804 -128.620092,136.23766 -156.864472,222.93939 -21.09233,64.74712 -28.93032,136.75415 -22.13509,203.35367 4.48567,43.96377 15.31454,88.83867 31.00864,128.49998 36.76193,92.9029 100.142952,170.7526 184.990922,227.2208 62.80015,41.795 144.87927,69.9651 222.00001,76.1919 14.7868,1.1939 62.287,1.2386 77.1048,0.072 z m -68.3424,-28.7826 -6.2376,-0.2974 0.5348,-10.2026 c 0.2942,-5.6114 0.9269,-19.8034 1.4061,-31.5378 0.4793,-11.7343 1.0205,-21.475 1.2028,-21.6459 0.1823,-0.1709 8.4315,0.016 18.3315,0.416 12.9019,0.5209 19.0433,1.1772 21.6837,2.3172 10.4753,4.5228 13.1308,22.6254 4.7237,32.2006 -3.8143,4.3442 -10.4468,5.8679 -23.4631,5.3902 -11.0364,-0.405 -10.4101,-1.2064 -10.4307,13.3481 -0.01,5.33 -0.3511,9.83 -0.7636,10 -0.4125,0.17 -3.5569,0.1752 -6.9876,0.012 z m 31.665,-36.8374 c 2.8533,-3.6274 2.7475,-9.469 -0.2344,-12.9357 -2.1982,-2.5556 -2.7755,-2.6878 -12.25,-2.8057 l -9.943,-0.1238 -0.2875,9.25 -0.2876,9.25 h 10.465 c 10.1144,0 10.5344,-0.088 12.5375,-2.6348 z m 48.8758,34.2928 c -14.4079,-4.0546 -22.6835,-18.0661 -21.5358,-36.4623 1.1628,-18.6384 12.4579,-29.1957 31.236,-29.1957 12.5408,0 21.1691,5.4301 26.7069,16.8078 3.0394,6.2447 3.2583,7.3943 3.2734,17.1922 0.019,12.1112 -1.8942,17.7409 -8.2423,24.2564 -6.5489,6.7218 -21.4161,10.2219 -31.4382,7.4016 z m 18.6065,-13.4653 c 5.4749,-3.1975 7.591,-7.5473 7.5847,-15.5906 -0.01,-11.6221 -3.0054,-18.6712 -9.9161,-23.3283 -5.9683,-4.022 -16.9418,-2.083 -21.077,3.7243 -4.8802,6.8537 -4.5675,20.8351 0.6676,29.8438 4.5247,7.7864 14.5369,10.1422 22.7408,5.3508 z m -163.84434,6.4061 c -8.21405,-1.7636 -15.09163,-3.6776 -15.28351,-4.2532 -0.29581,-0.8874 10.54906,-60.439 11.12003,-61.0625 0.29049,-0.3172 44.92652,8.712 45.39792,9.1833 0.8397,0.8398 -1.0585,8.6957 -2.2078,9.1367 -0.6647,0.2551 -7.61059,-0.9013 -15.43525,-2.5697 -7.82466,-1.6683 -14.84527,-3.0334 -15.60136,-3.0334 -0.9241,0 -1.76531,2.3159 -2.56641,7.0653 -0.65545,3.8859 -1.03361,7.2055 -0.84036,7.3768 0.19326,0.1713 5.86233,1.4602 12.59794,2.8641 13.83137,2.8831 17.09267,4.6646 20.16764,11.0165 3.4,7.0236 2.4532,14.6195 -2.68413,21.5334 -5.24795,7.0628 -12.04065,7.6003 -34.66471,2.7427 z m 24.03292,-9.6911 c 3.28116,-3.0825 3.29713,-8.836 0.0332,-11.9773 -2.72954,-2.6271 -8.71903,-4.6026 -16.72109,-5.5151 l -5.58955,-0.6373 -1.29616,7.861 c -0.71288,4.3236 -1.34759,8.2686 -1.41045,8.7668 -0.1715,1.3592 14.32001,4.5525 18.734,4.1281 2.2094,-0.2124 4.87112,-1.3308 6.25,-2.6262 z m 184.06962,-2.0827 c -8.1775,-27.2437 -14.6644,-51.0217 -14.1473,-51.8583 0.3286,-0.5317 1.2365,-0.9667 2.0176,-0.9667 0.781,0 8.598,-2.306 17.3709,-5.1244 17.742,-5.6999 20.6221,-5.8238 26.2038,-1.1272 3.5145,2.9574 6.8313,9.3782 6.8651,13.2902 0.012,1.3962 -0.808,4.1664 -1.8223,6.1561 l -1.8444,3.6176 2.7714,0.5543 c 6.6873,1.3374 12.9995,12.2804 11.4111,19.7823 -0.915,4.3217 -3.9202,9.2453 -6.7911,11.1263 -2.4243,1.5885 -20.2048,7.527 -30.4206,10.1602 -3.4198,0.8815 -6.8697,1.8529 -7.6666,2.1587 -1.0903,0.4183 -2.067,-1.5038 -3.9476,-7.7691 z m 23.3484,-7.3305 c 9.4611,-3.218 11.9837,-5.5323 11.9837,-10.9945 0,-4.0077 -1.6801,-6.6018 -5.7847,-8.9317 -1.9475,-1.1055 -21.2153,5.405 -21.2153,7.1685 0,1.2179 2.0837,9.4733 3.5371,14.0132 0.5879,1.8364 3.2419,1.5462 11.4792,-1.2555 z m -9.6885,-25.9101 c 4.3053,-1.3284 8.6928,-3.1981 9.75,-4.1548 4.2685,-3.8629 0.7379,-13.4296 -4.9562,-13.4296 -2.8983,0 -15.019,3.7154 -16.4975,5.057 -0.9279,0.842 2.1235,14.9431 3.2336,14.9429 0.3533,-10e-5 4.1648,-1.087 8.4701,-2.4155 z m -264.32781,34.5264 -5.5,-1.6932 -0.5,-7.2838 -0.5,-7.2838 -10.5,-3.4131 -10.5,-3.4131 -2,2.7366 c -1.1,1.5052 -3.125,3.942 -4.5,5.4153 l -2.5,2.6786 -5.7858,-2.5698 c -3.18219,-1.4133 -5.65719,-2.9351 -5.5,-3.3817 0.75977,-2.1586 41.22182,-51.896 42.18162,-51.8512 0.6073,0.028 3.80418,1.0855 7.10418,2.3492 l 6,2.2977 -0.0227,9.6508 c -0.0804,34.1377 -0.5815,57.6371 -1.22727,57.5527 -0.4125,-0.054 -3.225,-0.86 -6.25,-1.7912 z m -4.74963,-40.8792 c 0.19807,-6.7476 0.0496,-12.1476 -0.33005,-12 -0.92341,0.3591 -16.14527,20.8916 -15.73877,21.2297 0.17515,0.1457 3.69345,1.3825 7.81845,2.7483 4.78561,1.5847 7.57062,2.0866 7.69512,1.387 0.10732,-0.6031 0.35718,-6.6174 0.55525,-13.365 z m 331.45234,18.3896 c -6.7279,-2.5125 -11.7183,-6.5778 -15.7703,-12.8471 -4.8467,-7.4987 -6.9324,-14.2003 -6.9324,-22.2741 0,-13.3935 5.2233,-22.0231 16.7709,-27.708 5.8771,-2.8932 7.6586,-3.292 14.7081,-3.292 7.0046,0 8.6931,0.3723 13.3245,2.9381 11.2148,6.2128 18.2729,18.1866 19.0111,32.2517 0.3903,7.4352 0.1626,8.8364 -2.2301,13.727 -1.4656,2.9955 -4.3128,6.8935 -6.3272,8.6622 -8.7674,7.6978 -24.0662,11.7122 -32.5546,8.5422 z m 19.4631,-13.7429 c 10.1355,-5.0681 11.4279,-17.6242 3.1136,-30.2494 -6.416,-9.7425 -14.1643,-12.715 -22.7794,-8.7388 -6.6495,3.0689 -8.8514,6.2413 -9.2954,13.3922 -0.5349,8.6159 2.5246,16.5422 8.8124,22.83 6.2087,6.2086 11.7442,6.9685 20.1488,2.766 z m -434.43426,-0.012 c -3.15235,-1.594 -5.73155,-3.119 -5.73155,-3.389 0,-0.27 6.30219,-13.089 14.00487,-28.4868 l 14.00486,-27.9959 18.15697,9.0891 c 9.98634,4.999 19.21417,9.491 20.50629,9.9823 l 2.34933,0.8932 -2.74217,4.9115 -2.74217,4.9114 -13.72211,-6.8741 -13.72211,-6.8742 -6.47176,12.2332 c -3.55947,6.7283 -9.10137,17.2427 -12.31534,23.3654 l -5.84357,11.1322 z m 193.75296,-29.8779 c -69.32157,-6.7379 -129.44173,-29.7215 -183.80459,-70.2677 -57.20269,-42.6643 -101.36832,-102.4336 -126.5209,-171.22068 -46.11525,-126.11562 -18.19027,-269.03431 72.17277,-369.37677 42.72207,-47.44016 96.29436,-82.03341 158.05551,-102.0612 54.59391,-17.70362 118.86951,-21.72175 176.11271,-11.00954 42.3427,7.92379 80.7688,21.5463 113.9614,40.40069 64.3291,36.54082 114.4581,89.19451 147.1266,154.53647 19.1553,38.31339 29.9838,73.9452 36.0154,118.51035 2.2007,16.26062 2.534,63.27143 0.5671,80 -6.6788,56.80452 -23.7164,107.94197 -51.0431,153.20378 -59.2986,98.2175 -153.1141,160.4225 -264.4807,175.3655 -17.1928,2.3069 -62.6807,3.4236 -78.1622,1.9189 z m 44.595,-17.4113 c 51.9375,-14.314 109.0732,-42.5906 153.092,-75.7656 44.3056,-33.3911 85.687,-79.2422 118.1711,-130.9351 24.6749,-39.2658 51.0381,-94.36517 64.7106,-135.24588 2.8704,-8.58241 2.7374,-9.1562 -8.258,-35.6303 -48.0097,-115.59568 -107.778,-196.45972 -187.656,-253.89111 -33.8138,-24.31174 -81.0376,-47.59235 -127.6392,-62.92417 -24.2974,-7.99379 -24.1225,-7.97398 -37.3439,-4.22895 -47.36509,13.41643 -98.69109,37.68326 -138.15611,65.31994 -38.08516,26.67039 -73.67585,60.95402 -103.66253,99.85553 -13.801,17.90395 -36.65353,52.64829 -47.92824,72.86876 -15.03043,26.95609 -30.08894,58.94424 -41.89701,89 -7.66088,19.49971 -8.11386,21.30148 -6.69189,26.61804 3.75729,14.0481 22.01954,56.26769 38.22996,88.38196 39.00006,77.26254 87.05908,136.38628 148.44971,182.62738 32.38452,24.393 82.41617,51.0634 121.50001,64.7682 10.0618,3.5281 39.3319,12.3409 41.5795,12.5189 0.5938,0.047 6.6688,-1.4549 13.5,-3.3376 z m -23.5795,-98.28 c -3.85,-0.1572 -8.4625,-0.5337 -10.25,-0.8367 l -3.25,-0.5508 v -14.8395 -14.8394 l -5.75,-0.7041 c -9.5213,-1.1658 -24.1689,-4.3763 -34.40631,-7.5412 -5.31097,-1.6418 -10.30558,-2.9852 -11.09913,-2.9852 -1.27734,0 -7.31245,11.5934 -12.09601,23.2364 l -1.5351,3.7363 -8.30673,-3.5355 c -8.4525,-3.5975 -26.76319,-13.3871 -30.95825,-16.5515 l -2.31108,-1.7432 6.2277,-12.7231 c 4.62602,-9.4509 5.95252,-13.0547 5.15774,-14.0124 -0.58848,-0.709 -4.97436,-3.964 -9.7464,-7.2332 -4.77204,-3.26915 -13.5422,-10.04637 -19.48923,-15.06044 -8.60078,-7.2515 -11.15796,-8.92283 -12.5,-8.16982 -1.80312,1.01171 -9.08342,6.90452 -16.99621,13.75706 l -4.85051,4.20059 -7.92025,-10.0338 c -4.35613,-5.51859 -10.5897,-13.89973 -13.85238,-18.62476 l -5.93214,-8.59096 3.40455,-2.57582 c 6.3946,-4.83806 18.95973,-16.18419 18.95973,-17.12036 0,-0.51389 -2.4416,-5.3266 -5.42578,-10.69491 -2.98417,-5.36831 -7.10299,-14.03556 -9.15292,-19.26056 -2.04993,-5.225 -4.36343,-10.2437 -5.14112,-11.15266 -1.21896,-1.42473 -3.03852,-1.5778 -13.19366,-1.10992 -6.47883,0.2985 -13.41124,0.23664 -15.40536,-0.13746 -3.19142,-0.59871 -3.7554,-1.16195 -4.7088,-4.70261 -0.59572,-2.21235 -1.33135,-4.6693 -1.63473,-5.4599 -0.47461,-1.23679 5.50062,-1.43027 42.80538,-1.38602 l 43.35699,0.0514 5.5,11.69858 c 23.10391,49.14233 65.6939,82.6294 120.00001,94.35195 8.9555,1.93315 13.5154,2.27026 31,2.29187 17.3659,0.0215 22.2118,-0.31946 31.697,-2.23002 54.6224,-11.00231 97.5374,-45.62962 120.7927,-97.46523 l 3.9255,-8.75 h 42.4037 42.4037 l -0.6646,3.75 c -1.3251,7.47646 -0.077,6.92704 -17.5388,7.71838 l -15.9264,0.72176 -1.6819,4.65493 c -0.9251,2.56021 -5.2773,12.05282 -9.6716,21.09469 -5.9518,12.2465 -7.7432,16.83772 -7.0234,18 0.9018,1.45599 14.638,13.09343 19.3526,16.39569 2.1106,1.47829 2.1098,1.48192 -1.6194,7.32179 -3.5457,5.55251 -15.0494,20.81062 -21.3639,28.33636 l -2.9313,3.49361 -7.327,-7.04429 c -8.6066,-8.27463 -12.9121,-11.4429 -15.5501,-11.4429 -1.053,0 -5.6872,3.41053 -10.2983,7.57896 -4.6111,4.16843 -13.2151,10.92696 -19.1198,15.01892 -5.9048,4.0921 -11.0082,8.2977 -11.3408,9.3459 -0.3967,1.2497 1.5294,5.9345 5.5949,13.6088 l 6.1999,11.703 -2.4064,1.8922 c -3.3597,2.6418 -35.9599,18.8522 -37.9132,18.8522 -1.0712,0 -3.5446,-4.1664 -7.4814,-12.6023 -3.2346,-6.9312 -6.4052,-12.8033 -7.0456,-13.0491 -0.6405,-0.2457 -6.2949,1.1065 -12.5653,3.0051 -11.2104,3.3942 -23.0538,5.9925 -33.9008,7.4373 l -5.5,0.7326 -0.5,14.4183 c -0.498,14.3593 -0.5103,14.4211 -3,15.0777 -3.2952,0.8691 -21.662,1.6383 -30.5,1.2773 z M 284.71132,560.44633 c -16.69606,-3.73675 -30.04871,-13.76258 -36.87218,-27.68547 -12.39588,-25.29303 -2.11912,-55.78574 23.0907,-68.5136 10.59561,-5.34949 -2.41199,-5.09056 256.54069,-5.10653 l 239.7592,-0.0148 -2.2592,3.48762 -2.2592,3.48762 -235.6135,0.0124 c -152.2432,0.008 -237.47227,0.36488 -240.86653,1.00859 -12.50052,2.37068 -25.30285,11.7973 -30.88668,22.74249 -4.70861,9.22964 -6.27386,22.40266 -3.77395,31.7613 3.09067,11.57019 11.95778,22.46676 22.03761,27.08146 12.66442,5.79796 -1.89333,5.52227 252.75445,4.7866 l 233.6514,-0.67501 2.1189,4.15348 2.1189,4.15345 -238.7703,-0.116 c -131.32366,-0.0638 -239.67031,-0.31741 -240.77031,-0.5636 z m 2,-17.72253 c -10.51428,-3.33395 -18.42646,-9.75237 -22.68848,-18.40504 -1.92874,-3.9157 -2.30895,-6.26597 -2.296,-14.19281 0.0131,-8.03389 0.39243,-10.26513 2.45781,-14.45781 3.25328,-6.60412 8.98753,-12.1634 15.87871,-15.39423 l 5.64796,-2.64796 234.78961,-0.25829 234.7896,-0.2583 -1.1584,2.16455 c -1.2738,2.38007 -11.7482,27.35917 -12.5827,30.00666 -0.2868,0.91004 2.2758,8.56004 5.6947,17 3.4189,8.43996 6.4333,15.90788 6.6987,16.59538 0.7144,1.85095 -461.38891,1.70047 -467.23151,-0.15215 z m 312.78211,-7.98147 c 4.5905,-1.97381 10.3733,-8.38213 12.175,-13.49211 6.0668,-17.20584 -5.0077,-34.53438 -21.9973,-34.41974 -10.7926,0.0728 -18.9673,6.3536 -22.0439,16.93662 -3.7818,13.00899 2.9817,28.03902 14.0841,31.29789 4.6863,1.37557 14.2355,1.20231 17.7821,-0.32266 z m -17.6869,-10.66694 c -6.8203,-5.98834 -6.9028,-18.5083 -0.1627,-24.69944 4.0196,-3.69225 9.5113,-4.36468 14.5147,-1.77728 3.2611,1.68635 7.0555,8.73603 7.0472,13.093 -0.026,13.55814 -12.3919,21.29227 -21.3992,13.38372 z m 117.574,8.54682 c 9.7529,-6.74751 13.2583,-22.23946 7.5249,-33.25563 -8.1973,-15.75012 -29.592,-17.17548 -39.6109,-2.63896 -5.8995,8.55966 -5.4043,22.60429 1.1093,31.46148 1.2691,1.72578 4.3325,4.22028 6.8075,5.54333 3.8109,2.03716 5.6744,2.36576 12.1692,2.14578 6.6564,-0.22545 8.2411,-0.65544 12,-3.256 z m -19.7679,-7.3339 c -3.5741,-2.24792 -6.4013,-8.41835 -6.4013,-13.97071 0,-4.823 3.7709,-12.32361 7,-13.92351 4.0136,-1.98859 10.352,-1.56572 13.4863,0.89976 7.07,5.56122 7.4391,20.18979 0.6618,26.22792 -3.1516,2.80796 -10.8638,3.20883 -14.7468,0.76654 z m -359.40131,-9.16236 v -19 h 7 7 v -4.5 -4.5 h -19 -19 v 4.5 4.5 h 7 7 v 19 19 h 5 5 z m 39.17959,16.26485 c 1.51848,-1.51847 20.82041,-42.31117 20.82041,-44.00184 0,-0.14466 -2.5875,-0.25908 -5.75,-0.25427 l -5.75,0.009 -4.39043,10.74127 c -2.41473,5.90769 -4.7029,11.09443 -5.08481,11.52607 -0.38191,0.43165 -2.93712,-4.29335 -5.67825,-10.5 l -4.98387,-11.28508 -5.66894,-0.29953 c -6.69205,-0.3536 -6.98841,-2.42718 2.61537,18.29953 3.82265,8.25 7.00443,16.125 7.07061,17.5 0.10203,2.11988 -0.37384,2.54765 -3.12968,2.81336 -3.08162,0.29712 -3.25,0.52373 -3.25,4.37383 v 4.06047 l 5.55942,-0.46103 c 3.83488,-0.31802 6.19867,-1.10028 7.62017,-2.52178 z m 55.82041,-16.23102 v -18.96617 l 10.75,-0.28383 10.75,-0.28383 0.3075,-4.25 0.3075,-4.25 h -16.5575 -16.5575 v 23.5 23.5 h 5.5 5.5 z m 28.88025,13.71617 1.47089,-4.75 h 8.24407 8.2441 l 1.6607,5 1.6607,5 h 5.4197 c 2.9808,0 5.4196,-0.41103 5.4196,-0.91339 0,-0.82894 -3.7502,-10.96835 -13.6244,-36.83661 l -3.5309,-9.25 h -5.6858 -5.6858 l -7.98658,22.6356 c -4.39259,12.44958 -8.14447,23.04839 -8.3375,23.55292 -0.19589,0.51197 2.2144,0.78346 5.45468,0.6144 l 5.80566,-0.30292 z m 4.60046,-14.5 c 0.382,-0.9625 1.6054,-4.66663 2.7186,-8.23141 l 2.024,-6.4814 2.245,5.9814 c 4.271,11.37898 4.4429,10.48141 -2.0079,10.48141 -5.0021,0 -5.5921,-0.20732 -4.9797,-1.75 z m 64.1382,17.18821 c 6.9947,-5.22986 8.9013,-13.39744 4.7894,-20.51655 -3.008,-5.20778 -7.3727,-6.91828 -17.6583,-6.92011 l -8.75,-0.002 v -4.33282 -4.33281 l 12,0.38306 12,0.38306 v -4.55025 -4.55024 h -17 -17 v 23.57377 23.57378 l 14.4307,-0.32378 c 12.716,-0.2853 14.7583,-0.56875 17.1882,-2.38556 z m -21.6189,-12.43821 v -6 h 7.4286 c 8.368,0 10.5714,1.25364 10.5714,6.01472 0,4.30359 -3.1532,5.98528 -11.2225,5.98528 h -6.7775 z m 45,7.10262 v -7.89739 l 8.4274,-0.35261 c 8.9622,-0.37499 11.8356,-1.64546 15.834,-7.00098 4.6362,-6.20963 2.2936,-17.71382 -4.4434,-21.82123 -2.8888,-1.76123 -5.0321,-2.02342 -16.568,-2.02667 l -13.25,-0.004 v 23.5 23.5 h 5 5 z m 0,-24.10262 v -6.08762 l 7.2156,0.29381 c 6.6952,0.27262 7.3262,0.49214 8.75,3.04381 1.3792,2.47186 1.3792,3.02814 0,5.5 -1.4238,2.55167 -2.0548,2.77119 -8.75,3.04381 l -7.2156,0.29381 z m 114.4561,30.02124 c 5.1436,-2.48998 7.5439,-6.47527 7.5439,-12.52553 0,-3.97567 -0.5043,-5.19997 -3.2885,-7.98423 -2.528,-2.52798 -2.9806,-3.48775 -1.9572,-4.15 0.7323,-0.47381 1.9333,-2.62685 2.6691,-4.78452 1.6284,-4.77543 0.6496,-8.95732 -2.9368,-12.54775 -2.4437,-2.44641 -3.0169,-2.53975 -17.5065,-2.85126 l -14.9801,-0.32204 v 23.57204 23.57205 h 13.1843 c 11.0933,0 13.8325,-0.31383 17.2718,-1.97876 z m -20.4561,-13.13054 v -6.1093 l 7.5985,0.3837 c 8.1621,0.41218 10.4015,1.80179 10.4015,6.4546 0,4.10833 -2.4992,5.3803 -10.5714,5.3803 h -7.4286 z m 0,-18.6407 v -4.75 l 7.4438,0.32696 c 8.0229,0.35239 10.1962,1.59581 9.0579,5.18234 -0.8705,2.74076 -4.3353,3.9907 -11.0628,3.9907 h -5.4349 z m -367.67469,-54.5 c 0.29707,-1.2375 0.83759,-3.89302 1.20115,-5.90115 0.81633,-4.50899 1.07004,-4.56889 19.78315,-4.6709 l 14.19238,-0.0774 3.24061,-8.21956 c 1.78234,-4.52076 6.20799,-14.26128 9.83478,-21.6456 l 6.59416,-13.42605 -2.17102,-2.31094 c -1.19406,-1.27102 -6.16194,-5.58536 -11.03974,-9.58742 l -8.86873,-7.27647 2.70497,-4.86525 c 3.28161,-5.90241 13.35373,-19.34026 19.90499,-26.55651 l 4.79998,-5.28721 11.5,9.03376 c 6.325,4.96858 11.96537,9.03532 12.53416,9.03722 0.56879,0.002 3.49379,-2.52961 6.5,-5.62556 3.00621,-3.09594 10.86584,-9.58567 17.46584,-14.4216 6.6,-4.83594 13.06397,-9.63214 14.36438,-10.65821 l 2.36438,-1.8656 -6.17832,-12.32497 c -3.39808,-6.77874 -5.97897,-12.837 -5.73532,-13.4628 0.98075,-2.519 32.25381,-18.98651 39.55572,-20.82892 0.71785,-0.18113 3.68904,5.04565 7.18303,12.636 3.27734,7.11969 6.42709,13.23432 6.99946,13.58806 0.57236,0.35373 5.857,-0.81519 11.74366,-2.59761 9.30832,-2.81848 24.01662,-6.02478 36.45302,-7.94651 l 3.75,-0.57947 V 279.7056 c 0,-16.60932 0.2355,-17.33985 5.8662,-18.19916 6.1456,-0.93787 30.3898,-0.93851 36.3838,-9.6e-4 l 4.75,0.74298 0.014,12.18872 c 0.016,14.23194 0.4752,16.5724 3.3558,17.10312 22.5669,4.15754 31.3898,6.12126 39.3253,8.7526 11.1399,3.69394 9.1295,5.09155 16.7822,-11.66699 2.7627,-6.05 5.367,-11.53002 5.7874,-12.17781 0.8596,-1.32444 20.0149,7.32436 33.6835,15.20839 l 7.9431,4.58157 -5.9863,12.16344 c -3.2924,6.6899 -5.8554,13.07377 -5.6954,14.18639 0.1878,1.3069 4.4512,4.86751 12.0446,10.0593 6.4646,4.41999 15.0251,11.28589 19.0235,15.25754 4.1459,4.11828 8.119,7.2151 9.2462,7.20703 2.0633,-0.0148 7.2544,-3.83499 17.3629,-12.77769 l 5.9817,-5.29184 8.147,9.29184 c 4.4809,5.11055 10.8345,13.34188 14.1191,18.29188 l 5.9721,9 -2.8031,2.34776 c -11.7825,9.86827 -19.3032,16.6761 -19.3032,17.47345 0,0.51867 3.3622,7.66587 7.4715,15.88268 4.1094,8.21681 8.2596,17.49486 9.2228,20.61788 0.9632,3.12303 2.2135,6.03945 2.7785,6.48093 0.5649,0.44149 7.9555,0.66649 16.4234,0.5 l 15.3963,-0.3027 1.1983,3.5 c 0.6591,1.925 1.5018,4.7375 1.8728,6.25 l 0.6745,2.75 h -43.3611 -43.361 l -2.6682,-6.75 c -7.128,-18.03304 -19.9652,-37.2891 -35.0572,-52.5865 -25.1248,-25.4669 -52.6545,-39.92997 -90.0906,-47.3302 -11.0399,-2.18234 -41.0584,-2.44302 -52.5,-0.45591 -40.26218,6.99246 -71.62595,23.23826 -98.00001,50.76202 -13.6324,14.22667 -24.783,31.1374 -32.05285,48.61059 l -3.22444,7.75 H 304.96426 261.9945 Z M 140.21132,761.58933 c -5.96482,-1.8521 -10.95866,-6.1341 -14.28818,-12.2515 -3.62511,-6.6606 -4.34358,-12.536 -2.36128,-19.31 5.50854,-18.8242 29.70121,-24.9454 43.61196,-11.0346 19.54597,19.5459 -0.2872,50.879 -26.9625,42.5961 z m 712.88231,0.2174 c -12.0284,-4.5023 -17.8823,-12.8356 -17.8823,-25.4563 0,-9.377 4.6646,-17.0588 13.2457,-21.813 4.5099,-2.4988 6.3168,-2.9079 12.7543,-2.8882 5.7177,0.018 8.4506,0.5314 11.5,2.1623 4.7253,2.527 9.557,7.4409 12.1085,12.3144 2.5351,4.8421 2.5767,17.1231 0.075,22.1497 -2.3401,4.702 -7.9158,10.2581 -12.4571,12.413 -4.7564,2.2571 -14.757,2.8351 -19.3443,1.1181 z M 64.728108,614.85493 c -0.72723,-3.1736 -6.52556,-50.05354 -6.2277,-50.3514 0.13595,-0.13595 2.54023,-0.55136 5.34284,-0.92314 5.91178,-0.78423 5.75014,-1.04925 6.9406,11.37971 0.43396,4.5307 1.19802,7.52431 1.99888,7.83163 0.71302,0.27361 12.2127,-1.11327 25.55484,-3.08195 17.134222,-2.52821 24.458332,-3.256 24.939062,-2.47816 1.14508,1.85279 1.94561,11.26955 1.00733,11.84942 -0.48494,0.2997 -11.61217,2.0709 -24.727182,3.936 -13.115,1.8651 -24.26243,3.76707 -24.77206,4.2266 -0.56653,0.51084 -0.44166,4.00334 0.32134,8.98757 0.68637,4.48364 0.87834,8.48583 0.4266,8.89377 -0.45173,0.40794 -2.95264,1.01559 -5.55756,1.35032 -4.31975,0.5551 -4.78114,0.41261 -5.24699,-1.62037 z M 938.21133,603.24431 c -2.7361,-0.48339 -3.4529,-1.0549 -3.284,-2.61836 0.1188,-1.1 0.6865,-5.55732 1.2615,-9.90515 0.575,-4.34783 0.8743,-8.07636 0.6651,-8.2856 -0.2093,-0.20925 -11.7586,-1.93362 -25.6653,-3.83194 -13.9067,-1.89832 -25.3882,-3.5698 -25.5145,-3.7144 -0.3876,-0.44366 1.3569,-11.91596 1.8936,-12.45266 0.277,-0.27702 11.7533,1.01769 25.5029,2.87712 l 24.9991,3.38079 0.5179,-3.03408 c 0.2849,-1.66874 0.8196,-5.63006 1.1884,-8.80293 l 0.6705,-5.76884 5.1324,0.65431 c 2.8228,0.35988 5.3054,0.80382 5.5168,0.98656 0.2114,0.18273 -0.824,9.68427 -2.3008,21.11453 -1.4769,11.43026 -2.9453,22.91979 -3.2632,25.53229 -0.6191,5.08699 -0.5699,5.061 -7.3204,3.86836 z M 56.057378,549.96385 c -0.0847,-0.18585 -0.64717,-10.5764 -1.25,-23.09012 l -1.09606,-22.75222 5.75,0.002 5.75,0.002 0.15232,9.75 c 0.0838,5.3625 0.25686,10.2 0.38465,10.75 0.12778,0.55 0.28424,3.3625 0.34768,6.25 l 0.11535,5.25044 h 7.53345 7.53344 l -0.67783,-14.34561 -0.67783,-14.34561 2.39439,-0.64074 c 1.31691,-0.3524 3.58093,-0.64688 5.03116,-0.65439 l 2.63678,-0.0136 0.73061,15.08593 c 0.71444,14.75217 0.77779,15.07328 2.86322,14.51366 1.17293,-0.31475 4.94645,-0.57843 8.385582,-0.58594 l 6.25298,-0.0136 -0.66021,-17.5 -0.6602,-17.5 h 5.65723 5.65723 l 0.014,7.25 c 0.008,3.9875 0.29843,14.51184 0.64609,23.38742 l 0.63212,16.13742 -3.89609,0.5691 c -2.14285,0.31301 -14.69609,0.83083 -27.896092,1.15073 -13.2,0.31989 -25.6875,0.82901 -27.75,1.13137 -2.0625,0.30237 -3.81927,0.3977 -3.90394,0.21186 z m 834.107652,-10.5879 c -0.07,-1.14168 0.1953,-29.45683 0.3816,-40.63677 l 0.1647,-9.88677 14.5,0.64912 c 16.1934,0.72493 49.3776,2.76122 49.7238,3.0512 0.3769,0.3157 -2.5161,43.69888 -2.9425,44.12523 -0.2195,0.21947 -2.7281,0.12319 -5.5747,-0.21395 -4.5966,-0.5444 -5.1281,-0.84935 -4.7505,-2.72552 0.2338,-1.1619 0.6983,-8.23769 1.0321,-15.72398 l 0.607,-13.61143 -3.7976,-0.62756 c -6.8288,-1.12847 -10.1235,-0.78832 -10.6589,1.10043 -0.2728,0.9625 -0.8033,7.7125 -1.1789,15 l -0.6829,13.25 -2.6384,-0.0136 c -1.4512,-0.008 -3.6892,-0.29499 -4.9734,-0.63884 l -2.3349,-0.62518 0.7101,-14.86117 0.71,-14.86116 -5.8751,-0.11894 c -3.2314,-0.0654 -7.0002,-0.17791 -8.3752,-0.25 l -2.5,-0.13111 -0.6319,13.5 c -0.3475,7.425 -0.685,16.0875 -0.75,19.25 l -0.1181,5.75 h -5 c -2.75,0 -5.0209,-0.3375 -5.0463,-0.75 z m -775.9279,-45.98701 c -0.8108,-0.31851 -7.09971,-5.23299 -13.97535,-10.92105 -6.875642,-5.68807 -13.016472,-10.34194 -13.646282,-10.34194 -0.62982,0 -7.81853,3.13489 -15.9749,6.96642 -8.15638,3.83153 -15.00427,6.79192 -15.21754,6.57865 -0.21327,-0.21327 -0.0638,-3.41271 0.3321,-7.10986 l 0.71988,-6.72209 9.86464,-4.60656 c 5.42555,-2.53361 9.8475,-4.83156 9.82655,-5.10656 -0.021,-0.275 -4.09551,-3.65 -9.05459,-7.5 l -9.0165,-7 0.63221,-5.5 c 1.27631,-11.10335 0.24361,-11.12391 14.10856,0.28096 6.83281,5.62047 13.44257,10.84308 14.68833,11.60578 2.08445,1.27619 3.62627,0.73805 19.339382,-6.75 9.39089,-4.4752 17.2653,-8.13674 17.49868,-8.13674 0.23338,0 0.008,3.2625 -0.50094,7.25 l -0.92527,7.25 -11.38907,5.41996 c -6.26398,2.98098 -11.26455,5.73505 -11.11238,6.12015 0.15217,0.3851 4.26839,3.98013 9.14715,7.98895 l 8.87047,7.28877 -0.61178,5.09108 c -0.33648,2.8001 -0.61569,5.87859 -0.62047,6.84109 -0.009,1.81903 -0.50353,1.98697 -2.98288,1.01299 z m 826.7259,-23.46761 c -0.3053,-0.79577 -0.8698,-4.38467 -1.2543,-7.97533 -0.3846,-3.59067 -1.0335,-7.06945 -1.4421,-7.73063 -0.5656,-0.91503 -6.6914,-0.37853 -25.6492,2.24636 -13.6983,1.89668 -24.9925,3.37315 -25.0981,3.28105 -0.3431,-0.29928 -2.2662,-12.99198 -2.0076,-13.25056 0.138,-0.13801 11.4831,-1.88312 25.2113,-3.87802 13.7283,-1.99491 25.1249,-3.79148 25.3258,-3.99238 0.3611,-0.3611 -1.5643,-13.48383 -2.438,-16.61612 -0.3637,-1.30387 0.5783,-1.72183 4.8243,-2.14046 2.9019,-0.28611 5.4357,-0.37247 5.6307,-0.19191 0.4723,0.43737 8.0398,49.8731 7.6896,50.23367 -0.1501,0.15458 -2.5148,0.54658 -5.255,0.87112 -3.8247,0.45298 -5.1112,0.25393 -5.5374,-0.85679 z M 95.527628,419.80904 c -15.50103,-4.5007 -28.50063,-8.50769 -28.88799,-8.90441 -0.5769,-0.59085 1.05352,-8.68798 2.1897,-10.87469 0.17032,-0.3278 5.59225,0.90839 12.04872,2.74711 6.45648,1.83871 12.05762,3.00691 12.44698,2.59601 0.74151,-0.78255 5.88628,-21.47626 5.88628,-23.67628 0,-0.77537 -4.18214,-2.34414 -10.75,-4.03248 -5.9125,-1.51987 -11.12655,-3.11182 -11.58678,-3.53766 -0.46024,-0.42585 -0.0323,-3.3263 0.9509,-6.44546 1.66125,-5.27009 1.96798,-5.6289 4.33678,-5.07314 5.3748,1.26101 58.565612,15.74827 58.876022,16.0357 0.47341,0.43836 -2.99464,12.48221 -3.59427,12.48221 -0.27709,0 -6.32498,-1.61781 -13.43975,-3.59514 -7.11477,-1.97733 -13.12359,-3.4075 -13.35293,-3.17816 -0.52263,0.52263 -6.42492,22.87865 -6.43359,24.36842 -0.004,0.60232 5.50612,2.57594 12.24362,4.38583 6.7375,1.80989 12.53061,3.56709 12.87359,3.90488 0.34297,0.33779 -0.0522,2.97667 -0.87808,5.86417 -1.037,3.62549 -2.00353,5.2293 -3.12358,5.18309 -0.89206,-0.0368 -14.30459,-3.7493 -29.805622,-8.25 z m 783.925602,-3.43309 c -0.6059,-2.6125 -1.3622,-5.425 -1.6807,-6.25 -0.464,-1.2017 3.5973,-2.69318 20.4229,-7.5 11.5511,-3.3 21.0011,-6.225 21,-6.5 -10e-4,-0.275 -9.1106,-2.48273 -20.2431,-4.90608 -30.3123,-6.59839 -27.7431,-5.474 -29.888,-13.08043 -1.0001,-3.54648 -1.4886,-6.7595 -1.0857,-7.14003 0.403,-0.38054 2.9827,-1.35921 5.7327,-2.17484 2.75,-0.81563 14.8109,-4.68148 26.802,-8.59079 11.9912,-3.90931 22.3581,-7.10783 23.0377,-7.10783 0.6796,0 1.9662,2.72636 2.859,6.05858 1.921,7.16944 4.5586,5.47492 -20.1987,12.97675 -9.625,2.91652 -17.8406,5.58982 -18.2569,5.94066 -0.4164,0.35083 4.7586,1.87042 11.5,3.37686 6.7413,1.50643 18.0832,4.20306 25.2042,5.99249 l 12.9472,3.25353 1.2835,4.95056 c 2.0462,7.8928 2.2028,7.68053 -7.9328,10.75477 -18.6365,5.65271 -49.2613,14.68115 -49.8235,14.68837 -0.318,0.004 -1.0739,-2.13007 -1.6798,-4.74257 z M 140.71132,362.99731 c -3.3,-1.58987 -16.125,-7.63937 -28.5,-13.44334 -12.375002,-5.80396 -22.847922,-10.89504 -23.273172,-11.31351 -0.42524,-0.41847 0.34533,-3.28999 1.71239,-6.38116 l 2.48557,-5.6203 20.287602,9.85011 c 11.15819,5.41757 20.43404,9.7082 20.61301,9.53475 0.17897,-0.17345 -6.50722,-10.12332 -14.85819,-22.1108 l -15.18359,-21.79543 2.581,-5.26256 2.581,-5.26256 8.27719,3.84074 c 15.55494,7.21773 49.27645,23.29846 49.69677,23.69884 0.49873,0.47509 -4.01539,10.33504 -5.01427,10.95238 -0.73838,0.45634 -34.53727,-15.01315 -36.67948,-16.78791 -3.62776,-3.0055 -0.83631,1.54998 11.79678,19.25169 7.6453,10.71274 13.89462,20.1527 13.88738,20.9777 -0.007,0.825 -1.00246,4.03396 -2.21159,7.13102 l -2.1984,5.63101 z m 723.59621,-12.02999 c -11.4212,-3.28247 -20.5859,-16.8115 -20.5535,-30.34137 0.02,-8.31107 2.0792,-12.88255 8.6248,-19.14542 10.8289,-10.36125 29.2424,-14.26741 40.4069,-8.57173 5.2002,2.65298 12.059,10.1342 14.6397,15.96828 3.0353,6.86177 2.7904,15.85904 -0.5885,21.62477 -1.4434,2.46302 -4.087,5.62289 -5.8747,7.02194 l -3.2503,2.54373 -2.7937,-5.52488 -2.7937,-5.52487 2.5434,-3.02263 c 4.9545,-5.88805 2.4458,-16.79981 -4.7135,-20.50203 -7.2243,-3.73585 -24.1479,1.4479 -30.7075,9.40582 -2.5714,3.11954 -3.035,4.52717 -3.0319,9.20486 0.01,9.98383 5.6408,15.49158 15.1948,14.85433 l 4.98,-0.33217 1.9099,5 c 1.0505,2.75 1.9103,5.31635 1.9108,5.703 0.001,0.94679 -6.8837,2.80668 -9.9992,2.70123 -1.375,-0.0465 -4.0317,-0.52482 -5.9038,-1.06286 z M 141.56944,282.21876 c -3.37803,-1.59809 -9.11218,-4.89824 -12.74255,-7.33367 l -6.60067,-4.42805 3.52724,-4.91554 c 1.93998,-2.70355 4.01012,-4.78688 4.60032,-4.62963 0.59019,0.15726 3.61208,2.00472 6.71531,4.10547 7.71789,5.22467 11.58524,7.10861 14.59257,7.10861 4.66071,0 14.27565,-12.01735 13.36536,-16.70486 -0.17363,-0.89413 -4.44415,-4.59226 -9.49002,-8.21807 -5.04588,-3.62581 -9.50023,-6.91829 -9.89856,-7.31661 -0.72816,-0.72817 3.67278,-7.76856 6.13187,-9.80942 1.01336,-0.84101 7.28769,3.11818 27.12962,17.11917 14.19626,10.01727 25.96072,18.33626 26.14322,18.48667 0.74759,0.61607 -7.41603,10.30578 -8.41204,9.98457 -0.59412,-0.19161 -5.88237,-3.76682 -11.75168,-7.94491 -5.8693,-4.1781 -10.89571,-7.59654 -11.16979,-7.59654 -0.27407,0 -0.49832,0.68996 -0.49832,1.53324 0,2.7777 -5.0505,11.56598 -9.31256,16.20459 -7.28093,7.92422 -12.59421,8.96049 -22.32932,4.35498 z m 708.14189,1.42151 c -4.2898,-1.49568 -12.151,-9.30356 -16.5,-16.38803 -1.375,-2.23987 -2.7932,-4.0846 -3.1515,-4.09939 -0.3583,-0.0148 -4.4083,3.11454 -9,6.95407 -4.5917,3.83954 -8.6477,6.98954 -9.0133,7 -0.3657,0.0105 -2.3426,-2.26654 -4.3932,-5.06001 -3.6408,-4.9597 -3.6839,-5.12075 -1.8352,-6.85443 1.0413,-0.97647 12.3052,-10.11483 25.0309,-20.30746 l 23.1378,-18.53207 9.4755,13.1365 c 13.1487,18.22871 14.6443,21.59772 12.7354,28.6871 -1.9568,7.26684 -10.9616,14.99387 -18.9864,16.29213 -1.9473,0.31504 -5.2745,-0.0525 -7.5,-0.82841 z m 8.2014,-13.47384 c 4.5261,-2.75967 6.7344,-7.35147 5.3902,-11.20759 -1.1769,-3.37615 -9.1623,-14.75883 -10.3854,-14.80374 -0.6442,-0.0237 -10.5341,7.71002 -14.0957,11.02256 -1.3273,1.2345 9.0087,14.63953 12.1832,15.80057 3.6629,1.33969 3.3115,1.38099 6.9077,-0.8118 z m -81.1536,-30.17333 -16.5949,-16.14821 6.2622,-6.60947 c 3.4442,-3.63521 13.4673,-14.10524 22.2735,-23.26673 l 16.0114,-16.65725 17,16.33842 17,16.33843 -3.7449,3.79707 -3.7449,3.79706 -6.7551,-6.48389 c -3.7153,-3.56615 -9.3802,-8.95635 -12.5887,-11.97824 l -5.8336,-5.49434 -4.8501,5.3664 -4.8501,5.3664 11.1552,10.739 11.1552,10.739 -3.1446,3.1446 c -1.7295,1.72953 -3.6944,3.1446 -4.3665,3.1446 -0.672,0 -5.8509,-4.55522 -11.5086,-10.12272 l -10.2868,-10.12272 -5.8768,6.13772 -5.8768,6.13772 12.271,12.235 12.271,12.235 -4.3911,3.75768 -4.3911,3.75768 z m -570.57874,7.38285 c -3.5104,-3.7125 -13.55178,-14.02983 -22.31416,-22.9274 l -15.93162,-16.1774 16.79359,-16.61736 c 9.23648,-9.13955 17.06472,-16.25972 17.39611,-15.8226 0.33138,0.43712 1.91369,2.24993 3.51624,4.02847 l 2.91374,3.23371 -11.88881,12.03706 -11.8888,12.03707 5.21474,5.21474 5.21474,5.21474 10.90981,-10.87597 10.9098,-10.87598 2.97687,3.39046 c 1.63727,1.86475 2.98593,3.84046 2.99701,4.39046 0.0111,0.55 -4.46904,5.68823 -9.95581,11.41828 l -9.97596,10.41828 6.06922,6.06922 6.06921,6.06921 12.57061,-12.4875 12.57062,-12.48749 3.46556,3.95556 3.46556,3.95557 -16.77264,16.79443 c -9.22495,9.23694 -17.03598,16.79444 -17.35785,16.79444 -0.32188,0 -3.45737,-3.0375 -6.96778,-6.75 z M 739.71133,204.6993 c -2.3838,-1.0714 -20.139,-13.03113 -30.905,-20.81721 -1.8057,-1.30594 -1.481,-1.95818 6.2343,-12.52237 4.4765,-6.12956 12.8253,-17.66759 18.5528,-25.64005 l 10.4137,-14.49539 13.3521,8.99257 c 14.7483,9.93292 19.359,14.36411 20.8998,20.08633 2.1679,8.05103 -3.1126,16.77798 -11.5114,19.0243 -4.1592,1.11242 -4.2165,1.18597 -2.8959,3.71667 1.7618,3.37614 1.7096,6.30821 -0.1935,10.86392 -1.8056,4.32262 -5.8,8.79728 -9.6472,10.80716 -3.3794,1.76546 -10.3535,1.75769 -14.2997,-0.0159 z m 10.4507,-13.02086 c 2.5226,-2.68516 2.9538,-6.52308 1.1107,-9.88467 -1.168,-2.13032 -13.5454,-12.14885 -16.3289,-13.21699 -1.3003,-0.49894 -9.0168,8.38691 -10.2441,11.79645 -0.2551,0.70854 3.2844,3.96769 8.148,7.50272 9.8015,7.1241 13.4426,7.92373 17.3143,3.80249 z m 11.8325,-22.11319 c 1.2255,-0.85839 2.9299,-2.91768 3.7876,-4.5762 1.4138,-2.73396 1.4127,-3.23929 -0.011,-5.41256 -2.0424,-3.11709 -16.5443,-12.90409 -17.4837,-11.79932 -0.3969,0.46683 -2.4364,3.29581 -4.5321,6.28663 l -3.8104,5.43785 2.7721,2.21035 c 3.7078,2.95649 14.6824,9.41395 15.9993,9.41395 0.5776,0 2.0529,-0.70232 3.2784,-1.5607 z M 257.5433,203.21414 c -8.05302,-2.03881 -18.52772,-10.59246 -23.60164,-19.27312 -7.89994,-13.51553 -6.55274,-27.75737 3.58461,-37.89473 11.31785,-11.31785 26.52827,-12.86774 35.49465,-3.61678 l 3.17796,3.27882 -4.79448,3.57941 c -4.75836,3.55244 -4.81187,3.56531 -7.10456,1.70881 -2.60832,-2.11209 -8.9994,-2.4977 -12.40426,-0.74841 -5.84583,3.00335 -10.69179,9.62148 -10.67449,14.57815 0.0147,4.21017 4.31311,12.60976 9.1236,17.82852 8.17515,8.869 16.34199,10.807 23.54698,5.58774 5.14959,-3.73035 6.76624,-7.6597 5.96306,-14.49353 l -0.62472,-5.31539 5.01098,-2.72731 5.01098,-2.72732 1.63516,3.82347 c 2.55011,5.96291 2.15964,14.85366 -0.91455,20.82348 -1.41612,2.75 -3.85423,6.21206 -5.41801,7.69346 -6.21461,5.88722 -19.54798,9.78424 -27.01127,7.89473 z m 430.96953,-31.10084 -5.1627,-2.94852 7.0267,-15.26941 c 12.4636,-27.08409 12.1126,-26.20816 9.8731,-24.64037 -1.077,0.75402 -9.9638,7.04689 -19.7484,13.98415 -24.3176,17.24113 -21.0961,15.82524 -28.2388,12.41137 -3.3283,-1.59077 -6.0514,-3.02619 -6.0514,-3.18983 0,-0.37492 15.0207,-33.14618 22.0057,-48.01075 l 5.2517,-11.176008 5.6213,2.66215 c 3.0917,1.46419 5.7699,2.74201 5.9516,2.83962 0.1816,0.0976 -4.58,9.891338 -10.5813,21.763848 -6.0014,11.87252 -10.7492,21.5864 -10.5507,21.5864 0.1985,0 10.22,-6.975 22.2699,-15.5 12.05,-8.525 22.7242,-15.48949 23.7204,-15.47664 2.4064,0.031 11.8591,5.34136 11.6369,6.53734 -0.2257,1.21487 -26.4304,55.70991 -27.2444,56.65723 -0.3394,0.39486 -2.9402,-0.6089 -5.7796,-2.23058 z M 299.46132,146.23739 c -7.8375,-15.32148 -14.25,-28.49569 -14.25,-29.27602 0,-1.28313 10.76421,-7.40454 11.58218,-6.58658 0.18917,0.18918 2.89193,5.72308 6.00613,12.29756 3.1142,6.57448 5.82438,11.5036 6.02261,10.9536 0.19824,-0.55 2.36547,-8.13609 4.81607,-16.85797 2.45059,-8.72189 4.60514,-16.00749 4.78788,-16.19023 1.02456,-1.024568 14.1565,-6.413768 14.58482,-5.985448 0.28152,0.28152 -1.85658,7.379258 -4.75132,15.772748 -2.89474,8.3935 -5.32734,16.12854 -5.40577,17.18899 -0.13163,1.77973 10.56976,8.57102 34.97951,22.19861 l 3.80935,2.12671 -6.18721,3.12329 c -3.40297,1.71782 -6.72368,3.1233 -7.37935,3.1233 -0.65567,0 -7.62271,-3.86441 -15.4823,-8.58758 -7.85959,-4.72317 -14.74353,-8.30738 -15.29765,-7.96492 -0.55412,0.34246 -1.2876,2.11582 -1.62997,3.9408 -0.50408,2.68696 0.24943,5.05424 3.96127,12.44494 2.52106,5.01974 4.58375,9.51427 4.58375,9.98785 0,0.72336 -9.02421,6.21095 -10.13533,6.16326 -0.20057,-0.009 -6.77717,-12.55142 -14.61467,-27.87291 z m 70.35581,2.02656 c -0.76365,-1.30343 -16.60581,-58.785978 -16.60581,-60.253408 0,-1.0345 10.79933,-4.41859 11.58701,-3.63092 0.3362,0.3362 2.99704,10.12205 5.91299,21.746328 2.91595,11.62428 5.50544,21.33878 5.75444,21.58777 0.38593,0.38593 6.65355,-22.93036 12.28059,-45.685238 l 1.63149,-6.59747 4.99303,-1.15253 c 8.49207,-1.96021 8.23894,-2.14222 11.26191,8.09747 1.50193,5.0875 5.65896,18.850068 9.23784,30.583488 3.57888,11.73342 6.28831,21.55223 6.02096,21.81958 -0.66752,0.66752 -11.81828,3.54224 -12.21217,3.14835 -0.31067,-0.31067 -7.6799,-24.53738 -11.01587,-36.21523 -1.17301,-4.106218 -1.93796,-5.469598 -2.50267,-4.460518 -0.65137,1.16392 -9.69769,37.025688 -11.46778,45.460958 -0.33784,1.60995 -2.04434,2.55526 -7.47002,4.138 -3.86769,1.12826 -7.20036,1.76427 -7.40594,1.41337 z m 255.3942,-2.01129 c -3.025,-0.80316 -5.6509,-1.57363 -5.8353,-1.71215 -0.1844,-0.13853 1.2781,-6.1579 3.25,-13.3764 1.9719,-7.21849 3.5853,-13.76275 3.5853,-14.5428 0,-0.82813 -1.7684,-1.87917 -4.25,-2.52595 -2.3375,-0.60923 -8.1814,-2.16842 -12.9865,-3.46487 -4.8051,-1.29645 -8.9024,-2.05284 -9.1051,-1.68086 -0.2027,0.37198 -1.8621,6.52632 -3.6876,13.67632 -1.8254,7.15 -3.4308,13.15259 -3.5673,13.33908 -0.4011,0.54774 -11.4538,-2.11143 -11.9215,-2.86821 -0.5113,-0.82724 15.0071,-59.793298 15.9964,-60.782628 0.6915,-0.69149 11.5216,2.1297 11.5216,3.00133 0,0.47922 -1.1844,5.59817 -2.6321,11.37545 -1.4476,5.77727 -2.4041,10.73213 -2.1254,11.0108 0.2786,0.27866 6.2128,2.02745 13.1869,3.886188 l 12.6803,3.37953 0.7919,-2.17077 c 0.4356,-1.19392 1.8639,-6.333268 3.174,-11.420768 1.3102,-5.0875 2.8725,-9.25 3.4718,-9.25 0.5993,0 3.4439,0.69916 6.3214,1.55369 4.1189,1.22318 5.1184,1.91454 4.6983,3.25 -1.4208,4.51715 -6.8534,24.530218 -11.0323,40.642038 -2.56,9.87015 -4.9651,18.43972 -5.3447,19.0435 -0.4922,0.78304 -2.2669,0.67911 -6.1901,-0.36252 z m -96.5,-18.01612 c -2.5275,-0.52178 -3.051,-1.15237 -3.3237,-4.00334 -0.178,-1.8612 -0.049,-4.47883 0.287,-5.81696 0.5249,-2.09145 1.02,-2.34306 3.5268,-1.79247 3.1748,0.69731 9.496,-1.71626 10.3546,-3.95362 0.4005,-1.0438 -11.6524,-37.340648 -16.2045,-48.799058 l -1.0944,-2.75485 7.2271,0.63252 c 3.9749,0.34788 7.5297,0.91257 7.8995,1.25485 0.3698,0.34229 2.5025,8.1912 4.7393,17.44204 2.2368,9.25083 4.4748,17.5486 4.9734,18.43948 0.8981,1.604758 4.1357,-4.04681 14.9002,-26.00918 1.8196,-3.7125 3.8872,-6.75 4.5947,-6.75 2.6569,0 12.62,2.30173 12.62,2.91554 0,0.3517 -0.6168,1.52707 -1.3708,2.61195 -0.7539,1.08488 -7.3244,12.32251 -14.6011,24.97251 -7.2767,12.649998 -14.6149,24.454018 -16.3072,26.231158 -4.2635,4.47749 -11.805,6.70398 -18.2209,5.37943 z" />
  </g>
</svg>
